<svg xmlns="http://www.w3.org/2000/svg" viewBox="0 0 512 512" width="512" height="512">
  <defs>
    <linearGradient id="disc2" gradientUnits="userSpaceOnUse" x1="256" y1="16" x2="256" y2="496">
      <stop offset="0%" stop-color="#205a93"/><stop offset="48%" stop-color="#0e2e58"/><stop offset="100%" stop-color="#07193a"/>
    </linearGradient>
    <radialGradient id="gloss" gradientUnits="userSpaceOnUse" cx="256" cy="150" r="215">
      <stop offset="0%" stop-color="#bfe9ff" stop-opacity="0.42"/><stop offset="55%" stop-color="#bfe9ff" stop-opacity="0.10"/><stop offset="100%" stop-color="#bfe9ff" stop-opacity="0"/>
    </radialGradient>
    <clipPath id="discclip"><circle cx="256" cy="256" r="240"/></clipPath>
    <radialGradient id="sphereA" gradientUnits="userSpaceOnUse" cx="236" cy="144" r="144">
      <stop offset="0%" stop-color="#1a4f82"/><stop offset="50%" stop-color="#0b2b54"/><stop offset="100%" stop-color="#05142f"/>
    </radialGradient>
    <radialGradient id="sglossA" gradientUnits="userSpaceOnUse" cx="234" cy="140" r="63">
      <stop offset="0%" stop-color="#ffffff" stop-opacity="0.30"/><stop offset="100%" stop-color="#ffffff" stop-opacity="0"/>
    </radialGradient>
    <clipPath id="sphereclipA"><circle cx="256" cy="166" r="90"/></clipPath>
    <linearGradient id="band" x1="0" y1="0" x2="0" y2="1">
      <stop offset="0%" stop-color="#081A3B"/><stop offset="100%" stop-color="#0B2041"/>
    </linearGradient>
  </defs>
  <circle cx="256" cy="256" r="240" fill="url(#disc2)"/>
  <g clip-path="url(#discclip)"><ellipse cx="256" cy="150" rx="215" ry="150" fill="url(#gloss)"/></g>
  <g clip-path="url(#discclip)"><rect x="0" y="288" width="512" height="150" fill="url(#band)" opacity="0.55"/></g>
  <circle cx="256" cy="256" r="234" fill="none" stroke="#081A3B" stroke-width="11" opacity="0.85"/>
  <circle cx="256" cy="256" r="240" fill="none" stroke="#04122b" stroke-width="3"/>
  <circle cx="256" cy="256" r="238" fill="none" stroke="#5AC8FF" stroke-width="1.5" opacity="0.30"/>
  <circle cx="256" cy="166" r="99.0" fill="none" stroke="#5AC8FF" stroke-width="9.00" opacity="0.10"/>
  <ellipse cx="256.0" cy="166.0" rx="109.8" ry="37.3" fill="none" stroke="#5AC8FF" stroke-width="1.60" opacity="0.3" transform="rotate(20 256 166)"/>
  <circle cx="333.2" cy="216.9" r="3.20" fill="#46E08A" opacity="0.95"/>
  <ellipse cx="256.0" cy="166.0" rx="109.8" ry="37.3" fill="none" stroke="#5AC8FF" stroke-width="1.60" opacity="0.3" transform="rotate(-32 256 166)"/>
  <circle cx="165.5" cy="200.6" r="3.20" fill="#BDEBFF" opacity="0.95"/>
  <circle cx="256" cy="166" r="90" fill="url(#sphereA)"/>
  <circle cx="256" cy="166" r="90" fill="none" stroke="#5AC8FF" stroke-width="2.50" opacity="0.85"/>
  <g clip-path="url(#sphereclipA)"><ellipse cx="256.0" cy="92.2" rx="51.5" ry="13.4" fill="none" stroke="#5AC8FF" stroke-width="1.60" opacity="0.3"/><ellipse cx="256.0" cy="113.8" rx="73.3" ry="19.1" fill="none" stroke="#5AC8FF" stroke-width="1.60" opacity="0.3"/><ellipse cx="256.0" cy="139.0" rx="85.9" ry="22.3" fill="none" stroke="#5AC8FF" stroke-width="1.60" opacity="0.6"/><ellipse cx="256.0" cy="166.0" rx="90.0" ry="23.4" fill="none" stroke="#5AC8FF" stroke-width="1.60" opacity="0.6"/><ellipse cx="256.0" cy="193.0" rx="85.9" ry="22.3" fill="none" stroke="#5AC8FF" stroke-width="1.60" opacity="0.6"/><ellipse cx="256.0" cy="218.2" rx="73.3" ry="19.1" fill="none" stroke="#5AC8FF" stroke-width="1.60" opacity="0.3"/><ellipse cx="256.0" cy="239.8" rx="51.5" ry="13.4" fill="none" stroke="#5AC8FF" stroke-width="1.60" opacity="0.3"/><ellipse cx="256.0" cy="166.0" rx="90.0" ry="90.0" fill="none" stroke="#5AC8FF" stroke-width="1.60" opacity="0.6"/><ellipse cx="256.0" cy="166.0" rx="70.2" ry="90.0" fill="none" stroke="#5AC8FF" stroke-width="1.60" opacity="0.3"/><ellipse cx="256.0" cy="166.0" rx="45.0" ry="90.0" fill="none" stroke="#5AC8FF" stroke-width="1.60" opacity="0.3"/><ellipse cx="256.0" cy="166.0" rx="19.8" ry="90.0" fill="none" stroke="#5AC8FF" stroke-width="1.60" opacity="0.3"/><path d="M 193 154 C 236 136, 280 190, 321 172" fill="none" stroke="#8FDCFF" stroke-width="2.00" opacity="0.7"/><path d="M 206 188 C 246 200, 274 156, 310 146" fill="none" stroke="#8FDCFF" stroke-width="1.60" opacity="0.55"/></g>
  <circle cx="256.0" cy="166.0" r="3.00" fill="#8FDCFF" opacity="0.95"/>
  <circle cx="214.6" cy="166.0" r="2.60" fill="#8FDCFF" opacity="0.95"/>
  <circle cx="297.4" cy="166.0" r="2.60" fill="#8FDCFF" opacity="0.95"/>
  <circle cx="256.0" cy="113.8" r="2.60" fill="#BDEBFF" opacity="0.95"/>
  <circle cx="256.0" cy="218.2" r="2.60" fill="#8FDCFF" opacity="0.95"/>
  <circle cx="213.7" cy="135.4" r="2.80" fill="#46E08A" opacity="0.95"/>
  <circle cx="298.3" cy="196.6" r="2.60" fill="#46E08A" opacity="0.95"/>
  <circle cx="298.3" cy="135.4" r="2.40" fill="#8FDCFF" opacity="0.95"/>
  <circle cx="213.7" cy="196.6" r="2.40" fill="#8FDCFF" opacity="0.95"/>
  <circle cx="237.3" cy="121.0" r="2.20" fill="#8FDCFF" opacity="0.95"/>
  <circle cx="274.7" cy="211.0" r="2.40" fill="#46E08A" opacity="0.95"/>
  <g clip-path="url(#sphereclipA)"><ellipse cx="234" cy="140" rx="65" ry="45" fill="url(#sglossA)" transform="rotate(-25 234 140)"/></g>
  <g transform="translate(256,320)"><path d="M-217.8599314313384 0.0V-23.620016054117066H-213.02496170213993V-17.1681056285965L-213.10422350097926 -11.79415566729067Q-212.32745787235393 -13.030639729184047 -211.45557808512143 -14.219566711773833Q-210.5836982978889 -15.408493694363617 -209.41062367506697 -16.835206073471358L-203.62451235979668 -23.620016054117066H-197.7115821663835L-206.54134655708364 -13.395244003844914L-197.45794441009767 0.0H-203.1806462862965L-209.8861944681029 -10.20891969050429L-213.02496170213993 -6.75310526110998V0.0Z M-191.9121548689082 0.0V-23.620016054117066H-182.70193384377933Q-178.67543446274192 -23.620016054117066 -176.4640302751249 -21.51957838487511Q-174.2526260875079 -19.41914071563316 -174.2526260875079 -15.931621566703123Q-174.2526260875079 -13.50621052221996 -175.33058655172266 -11.786229487406738Q-176.4085470159374 -10.066248452593515 -178.43764906622397 -9.21022102512887L-173.41245101981113 0.0H-178.7705486213491L-183.27261879542243 -8.433455396503543H-187.07718513970974V0.0ZM-187.07718513970974 -12.348988259165903H-183.5896659907797Q-179.24611941438502 -12.348988259165903 -179.24611941438502 -15.931621566703123Q-179.24611941438502 -17.722938220471733 -180.31615369871582 -18.67407980654356Q-181.38618798304663 -19.62522139261539 -183.60551835054756 -19.62522139261539H-187.07718513970974Z M-169.35678329680087 0.0 -161.2879321749582 -23.620016054117066H-154.94698826781269L-146.67205646898776 0.0H-152.0460064302936L-153.86902780359793 -5.4849164796808765H-162.25492612079788L-164.01453805503076 0.0ZM-161.05014677844025 -9.273630464200325H-155.12136422525919L-155.83472041481303 -11.397846673094074Q-156.40540536645614 -13.20501568663055 -156.97609031809924 -15.313379535756434Q-157.54677526974234 -17.42174338488232 -158.16501730068902 -19.83130206959762Q-158.7515546121 -17.390038665346594 -159.29053484420734 -15.281674816220708Q-159.82951507631472 -13.173310967094821 -160.3684953084221 -11.397846673094074Z M-141.15797164733402 0.0V-23.620016054117066H-135.7681693262603L-128.30170787559646 -11.66733678914776Q-127.60420404581046 -10.510114526093702 -126.85914313672086 -9.123033046405618Q-126.11408222763126 -7.735951566717536 -125.33731659900593 -5.881225473877471Q-125.46413547714884 -7.62498504834249 -125.55132345587211 -9.37667080269144Q-125.63851143459536 -11.12835655704039 -125.63851143459536 -12.285578820094448V-23.620016054117066H-120.69257518702184V0.0H-126.0982298678634L-132.8830398485091 -10.843014081218842Q-133.53298659899153 -11.905122185665716 -134.08781919086675 -12.903820851041136Q-134.64265178274198 -13.902519516416556 -135.221262914269 -15.035963239818816Q-135.79987404579606 -16.16940696322108 -136.52908259511779 -17.643676421632414Q-136.4022637169749 -15.5036078529708 -136.3071495583677 -13.704365019318258Q-136.2120353997605 -11.905122185665716 -136.2120353997605 -10.858866440986706V0.0Z M-105.15979899207818 0.34875191489300367Q-109.42408376963354 0.34875191489300367 -111.96838751237568 -1.6090145164381762Q-114.51269125511783 -3.566780947769356 -114.607805413725 -7.323790212753077H-109.89965456266945Q-109.77283568452656 -5.532473558984467 -108.46501600367779 -4.6368152321001626Q-107.15719632282902 -3.7411569052158575 -105.20735607138178 -3.7411569052158575Q-103.27336817970239 -3.7411569052158575 -102.09236737699653 -4.573405793028707Q-100.91136657429068 -5.405654680841557 -100.91136657429068 -6.75310526110998Q-100.91136657429068 -7.973736963235493 -101.9814008586215 -8.62368371371791Q-103.0514351429523 -9.273630464200325 -104.98542303463168 -9.749201257236239L-107.58521003656135 -10.399148007718654Q-110.5813060326876 -11.12835655704039 -112.27750852784902 -12.689813994174976Q-113.97371102301045 -14.25127143130956 -113.97371102301045 -16.819353713703496Q-113.97371102301045 -18.95942228236511 -112.82441493984032 -20.560510618919352Q-111.67511885667021 -22.161598955473597 -109.66979534603544 -23.04933110247397Q-107.66447183540066 -23.937063249474342 -105.09638955300673 -23.937063249474342Q-102.4807501913092 -23.937063249474342 -100.53090993986194 -23.04140492259004Q-98.5810696884147 -22.145746595705734 -97.4872568644321 -20.55258443903542Q-96.3934440404495 -18.95942228236511 -96.36173932091377 -16.882763152774952H-101.0381854524336Q-101.16500433057651 -18.309475531882693 -102.25089097467517 -19.08624116050802Q-103.33677761877385 -19.863006789133347 -105.14394663231032 -19.863006789133347Q-106.99867272515039 -19.863006789133347 -108.00529757040974 -19.09416734039195Q-109.01192241566909 -18.325327891650556 -109.01192241566909 -17.13640090906077Q-109.01192241566909 -15.820655048328076 -107.87847869226682 -15.17070829784566Q-106.74503496886456 -14.520761547363245 -105.2390607909175 -14.156157272702377L-103.09899222225589 -13.63302940036287Q-101.1174472512729 -13.173310967094821 -99.51635891471867 -12.309357359746244Q-97.91527057816442 -11.445403752397667 -96.97998135186046 -10.074174632477447Q-96.0446921255565 -8.702945512557228 -96.0446921255565 -6.721400541574253Q-96.0446921255565 -3.5033715086979007 -98.44632463038786 -1.5773097969024485Q-100.84795713521923 0.34875191489300367 -105.15979899207818 0.34875191489300367Z M-79.59247906407673 0.3170471953572761Q-82.7153939383459 0.3170471953572761 -85.21214060178445 -1.1096651837504663Q-87.708887265223 -2.536377562858209 -89.15937818398254 -5.24713108316292Q-90.60986910274207 -7.95788460346763 -90.60986910274207 -11.79415566729067Q-90.60986910274207 -15.646279090881574 -89.15937818398254 -18.364958791070215Q-87.708887265223 -21.08363849125886 -85.21214060178445 -22.5103508703666Q-82.7153939383459 -23.937063249474342 -79.59247906407673 -23.937063249474342Q-76.4537118300397 -23.937063249474342 -73.96489134648508 -22.5103508703666Q-71.47607086293047 -21.08363849125886 -70.02557994417093 -18.364958791070215Q-68.57508902541139 -15.646279090881574 -68.57508902541139 -11.79415566729067Q-68.57508902541139 -7.9420322436997655 -70.02557994417093 -5.239204903278987Q-71.47607086293047 -2.536377562858209 -73.96489134648508 -1.1096651837504663Q-76.4537118300397 0.3170471953572761 -79.59247906407673 0.3170471953572761ZM-79.59247906407673 -3.978942301733815Q-76.83416846446843 -3.978942301733815 -75.1617445089588 -5.9842658123685855Q-73.48932055344916 -7.989589323003357 -73.48932055344916 -11.79415566729067Q-73.48932055344916 -15.614574371345846 -75.1617445089588 -17.62782406186455Q-76.83416846446843 -19.641073752383253 -79.59247906407673 -19.641073752383253Q-82.33493730391717 -19.641073752383253 -84.01528743931073 -17.61989788198062Q-85.69563757470429 -15.598722011577983 -85.69563757470429 -11.79415566729067Q-85.69563757470429 -8.00544168277122 -84.01528743931073 -5.9921919922525175Q-82.33493730391717 -3.978942301733815 -79.59247906407673 -3.978942301733815Z M-62.34764801420378 0.0V-23.620016054117066H-56.95784569313008L-49.49138424246623 -11.66733678914776Q-48.793880412680224 -10.510114526093702 -48.04881950359062 -9.123033046405618Q-47.303758594501026 -7.735951566717536 -46.5269929658757 -5.881225473877471Q-46.653811844018605 -7.62498504834249 -46.740999822741855 -9.37667080269144Q-46.82818780146511 -11.12835655704039 -46.82818780146511 -12.285578820094448V-23.620016054117066H-41.88225155389161V0.0H-47.28790623473316L-54.07271621537887 -10.843014081218842Q-54.72266296586129 -11.905122185665716 -55.27749555773652 -12.903820851041136Q-55.832328149611754 -13.902519516416556 -56.41093928113878 -15.035963239818816Q-56.98955041266581 -16.16940696322108 -57.71875896198755 -17.643676421632414Q-57.591940083844634 -15.5036078529708 -57.49682592523745 -13.704365019318258Q-57.40171176663027 -11.905122185665716 -57.40171176663027 -10.858866440986706V0.0Z M-24.71921868042082 0.0V-23.620016054117066H-8.914415991860608V-19.609369032847525H-19.88424895122236V-13.902519516416556H-9.738738699789526V-9.955281934218469H-19.88424895122236V-4.010647021269542H-8.882711272324883V0.0Z M-2.401632504831445 0.0V-23.620016054117066H2.988169816242248L10.4546312669061 -11.66733678914776Q11.152135096692108 -10.510114526093702 11.897196005781705 -9.123033046405618Q12.642256914871304 -7.735951566717536 13.41902254349663 -5.881225473877471Q13.292203665353721 -7.62498504834249 13.20501568663047 -9.37667080269144Q13.117827707907217 -11.12835655704039 13.117827707907217 -12.285578820094448V-23.620016054117066H18.063763955480727V0.0H12.65810927463917L5.87329929399346 -10.843014081218842Q5.223352543511044 -11.905122185665716 4.668519951635811 -12.903820851041136Q4.113687359760577 -13.902519516416556 3.535076228233549 -15.035963239818816Q2.9564650967065207 -16.16940696322108 2.227256547384786 -17.643676421632414Q2.3540754255276957 -15.5036078529708 2.4491895841348787 -13.704365019318258Q2.544303742742062 -11.905122185665716 2.544303742742062 -10.858866440986706V0.0Z M23.990010131098927 -19.609369032847525V-23.620016054117066H43.282331968589176V-19.609369032847525H36.069508274211145V0.0H31.21868618524482V-19.609369032847525Z M49.20857814420738 0.0V-23.620016054117066H65.0133808327676V-19.609369032847525H54.04354787340584V-13.902519516416556H64.18905812483868V-9.955281934218469H54.04354787340584V-4.010647021269542H65.04508555230332V0.0Z M71.52616431979676 0.0V-23.620016054117066H80.73638534492562Q84.76288472596303 -23.620016054117066 86.97428891358004 -21.51957838487511Q89.18569310119703 -19.41914071563316 89.18569310119703 -15.931621566703123Q89.18569310119703 -13.50621052221996 88.10773263698229 -11.786229487406738Q87.02977217276757 -10.066248452593515 85.00067012248098 -9.21022102512887L90.02586816889382 0.0H84.66777056735584L80.16570039328253 -8.433455396503543H76.36113404899521V0.0ZM76.36113404899521 -12.348988259165903H79.84865319792526Q84.19219977431993 -12.348988259165903 84.19219977431993 -15.931621566703123Q84.19219977431993 -17.722938220471733 83.12216548998913 -18.67407980654356Q82.05213120565833 -19.62522139261539 79.8328008381574 -19.62522139261539H76.36113404899521Z M95.44483883194039 0.0V-23.620016054117066H104.65505985706925Q107.34996101760609 -23.620016054117066 109.23639182998188 -22.59753884908985Q111.12282264235768 -21.575061644062636 112.11359512784917 -19.775818810410094Q113.10436761334066 -17.97657597675755 113.10436761334066 -15.646279090881574Q113.10436761334066 -13.30012984523773 112.0977427680813 -11.516739371353053Q111.09111792282195 -9.733348897468375 109.17298239091043 -8.726724052209024Q107.25484685899892 -7.720099206949673 104.54409333869421 -7.720099206949673H100.27980856113885V0.0ZM100.27980856113885 -11.619779709844169H103.76732771006888Q105.98665807756981 -11.619779709844169 107.04876618201669 -12.745297253362498Q108.11087428646356 -13.870814796880829 108.11087428646356 -15.646279090881574Q108.11087428646356 -17.437595744650185 107.04876618201669 -18.531408568632788Q105.98665807756981 -19.62522139261539 103.75147535030102 -19.62522139261539H100.27980856113885Z M119.07817086826246 0.0V-23.620016054117066H128.28839189339132Q132.31489127442873 -23.620016054117066 134.52629546204574 -21.51957838487511Q136.73769964966274 -19.41914071563316 136.73769964966274 -15.931621566703123Q136.73769964966274 -13.50621052221996 135.65973918544802 -11.786229487406738Q134.58177872123326 -10.066248452593515 132.55267667094668 -9.21022102512887L137.57787471735952 0.0H132.21977711582156L127.71770694174823 -8.433455396503543H123.91314059746091V0.0ZM123.91314059746091 -12.348988259165903H127.40065974639096Q131.74420632278563 -12.348988259165903 131.74420632278563 -15.931621566703123Q131.74420632278563 -17.722938220471733 130.67417203845483 -18.67407980654356Q129.60413775412403 -19.62522139261539 127.3848073866231 -19.62522139261539H123.91314059746091Z M147.83181510960452 -23.620016054117066V0.0H142.99684538040606V-23.620016054117066Z M163.3645913045482 0.34875191489300367Q159.10030652699285 0.34875191489300367 156.55600278425072 -1.6090145164381762Q154.01169904150856 -3.566780947769356 153.9165848829014 -7.323790212753077H158.62473573395692Q158.75155461209985 -5.532473558984467 160.05937429294863 -4.6368152321001626Q161.36719397379738 -3.7411569052158575 163.3170342252446 -3.7411569052158575Q165.251022116924 -3.7411569052158575 166.43202291962984 -4.573405793028707Q167.6130237223357 -5.405654680841557 167.6130237223357 -6.75310526110998Q167.6130237223357 -7.973736963235493 166.5429894380049 -8.62368371371791Q165.4729551536741 -9.273630464200325 163.5389672619947 -9.749201257236239L160.93918026006506 -10.399148007718654Q157.9430842639388 -11.12835655704039 156.24688176877737 -12.689813994174976Q154.55067927361594 -14.25127143130956 154.55067927361594 -16.819353713703496Q154.55067927361594 -18.95942228236511 155.69997535678607 -20.560510618919352Q156.8492714399562 -22.161598955473597 158.85459495059098 -23.04933110247397Q160.85991846122573 -23.937063249474342 163.42800074361966 -23.937063249474342Q166.0436401053172 -23.937063249474342 167.99348035676445 -23.04140492259004Q169.94332060821168 -22.145746595705734 171.03713343219428 -20.55258443903542Q172.13094625617688 -18.95942228236511 172.1626509757126 -16.882763152774952H167.4862048441928Q167.3593859660499 -18.309475531882693 166.27349932195122 -19.08624116050802Q165.18761267785254 -19.863006789133347 163.38044366431606 -19.863006789133347Q161.525717571476 -19.863006789133347 160.51909272621666 -19.09416734039195Q159.5124678809573 -18.325327891650556 159.5124678809573 -17.13640090906077Q159.5124678809573 -15.820655048328076 160.64591160435958 -15.17070829784566Q161.77935532776183 -14.520761547363245 163.2853295057089 -14.156157272702377L165.4253980743705 -13.63302940036287Q167.40694304535347 -13.173310967094821 169.0080313819077 -12.309357359746244Q170.60911971846195 -11.445403752397667 171.54440894476593 -10.074174632477447Q172.4796981710699 -8.702945512557228 172.4796981710699 -6.721400541574253Q172.4796981710699 -3.5033715086979007 170.07806566623856 -1.5773097969024485Q167.67643316140718 0.34875191489300367 163.3645913045482 0.34875191489300367Z M178.56446794436673 0.0V-23.620016054117066H194.36927063292694V-19.609369032847525H183.3994376735652V-13.902519516416556H193.54494792499804V-9.955281934218469H183.3994376735652V-4.010647021269542H194.40097535246267V0.0Z M209.53744255320976 0.34875191489300367Q205.2731577756544 0.34875191489300367 202.72885403291224 -1.6090145164381762Q200.1845502901701 -3.566780947769356 200.08943613156293 -7.323790212753077H204.79758698261847Q204.9244058607614 -5.532473558984467 206.23222554161015 -4.6368152321001626Q207.54004522245893 -3.7411569052158575 209.48988547390616 -3.7411569052158575Q211.42387336558554 -3.7411569052158575 212.6048741682914 -4.573405793028707Q213.78587497099724 -5.405654680841557 213.78587497099724 -6.75310526110998Q213.78587497099724 -7.973736963235493 212.71584068666644 -8.62368371371791Q211.64580640233564 -9.273630464200325 209.71181851065626 -9.749201257236239L207.1120315087266 -10.399148007718654Q204.11593551260034 -11.12835655704039 202.41973301743892 -12.689813994174976Q200.72353052227749 -14.25127143130956 200.72353052227749 -16.819353713703496Q200.72353052227749 -18.95942228236511 201.8728266054476 -20.560510618919352Q203.02212268861774 -22.161598955473597 205.0274461992525 -23.04933110247397Q207.03276970988728 -23.937063249474342 209.6008519922812 -23.937063249474342Q212.21649135397874 -23.937063249474342 214.16633160542597 -23.04140492259004Q216.11617185687322 -22.145746595705734 217.20998468085583 -20.55258443903542Q218.30379750483843 -18.95942228236511 218.33550222437418 -16.882763152774952H213.65905609285434Q213.53223721471144 -18.309475531882693 212.44635057061276 -19.08624116050802Q211.3604639265141 -19.863006789133347 209.5532949129776 -19.863006789133347Q207.69856882013755 -19.863006789133347 206.6919439748782 -19.09416734039195Q205.68531912961885 -18.325327891650556 205.68531912961885 -17.13640090906077Q205.68531912961885 -15.820655048328076 206.8187628530211 -15.17070829784566Q207.95220657642338 -14.520761547363245 209.45818075437043 -14.156157272702377L211.59824932303206 -13.63302940036287Q213.57979429401502 -13.173310967094821 215.18088263056927 -12.309357359746244Q216.78197096712353 -11.445403752397667 217.71726019342748 -10.074174632477447Q218.65254941973143 -8.702945512557228 218.65254941973143 -6.721400541574253Q218.65254941973143 -3.5033715086979007 216.25091691490007 -1.5773097969024485Q213.84928441006872 0.34875191489300367 209.53744255320976 0.34875191489300367Z" fill="#FFFFFF"/></g>
  <g transform="translate(256,374)"><path d="M-68.84933484939536 -14.17200963247024V0.0H-71.01793766563912V-14.17200963247024Z M-63.69681064932704 -12.307772123769457V-14.17200963247024H-52.69210249847599V-12.307772123769457H-57.09588804198855V0.0H-59.27400227409304V-12.307772123769457Z M-34.86352415251121 0.23778539651795705Q-37.2508895335515 0.23778539651795705 -38.66809049679853 -0.8798059671164411Q-40.08529146004555 -1.9973973307508393 -40.180405618652735 -3.937726166337369H-38.002291386548244Q-37.90717722794106 -2.777333431329738 -37.00359272117282 -2.2209156034777187Q-36.10000821440459 -1.6644977756256993 -34.87303556837193 -1.6644977756256993Q-33.52241451614994 -1.6644977756256993 -32.63785284110314 -2.292251222433106Q-31.753291166056336 -2.9200046692405124 -31.753291166056336 -3.947237582198087Q-31.753291166056336 -4.86984492068776 -32.52847155870488 -5.321637174071879Q-33.303651951353416 -5.773429427455997 -34.445021854639606 -6.0777947349989825L-36.10000821440459 -6.53434269631346Q-37.84059731691603 -7.000402073488655 -38.81551744263966 -7.913497996117611Q-39.79043756836328 -8.826593918746566 -39.79043756836328 -10.281840545436463Q-39.79043756836328 -11.508813191469121 -39.12939416604336 -12.426664822028435Q-38.46835076372344 -13.344516452587749 -37.3317365683676 -13.853377201136176Q-36.19512237301177 -14.362237949684605 -34.76840999390403 -14.362237949684605Q-33.31316336721413 -14.362237949684605 -32.205083419440456 -13.853377201136176Q-31.097003471666774 -13.344516452587749 -30.46449431692901 -12.45519906961059Q-29.831985162191245 -11.56588168663343 -29.803450914609087 -10.443534615068673H-31.914985235688548Q-32.01961081015645 -11.413699032861938 -32.81381403452643 -11.94633832106216Q-33.6080172588964 -12.478977609262385 -34.815967073207624 -12.478977609262385Q-36.10000821440459 -12.478977609262385 -36.860921483262054 -11.894025533828211Q-37.62183475211952 -11.309073458394037 -37.62183475211952 -10.4054889516258Q-37.62183475211952 -9.730178425514802 -37.21284387010863 -9.316431835573557Q-36.803852988097745 -8.902685245632313 -36.20938949680285 -8.660144141183995Q-35.614926005507954 -8.417603036735679 -35.07277530144702 -8.274931798824905L-33.69362000164286 -7.91349799611761Q-33.018309475531865 -7.742292510624681 -32.30019757804764 -7.452194326872774Q-31.582085680563406 -7.162096143120866 -30.973355065477435 -6.70079247387603Q-30.364624450391467 -6.2394888046311925 -29.988923523893096 -5.5594225705898355Q-29.613222597394724 -4.8793563365484784 -29.613222597394724 -3.918703334615932Q-29.613222597394724 -2.7202649361654285 -30.231464628341413 -1.7786347659543187Q-30.8497066592881 -0.8370045957432088 -32.02436651808681 -0.2996095996126259Q-33.19902637688551 0.23778539651795705 -34.86352415251121 0.23778539651795705Z M-24.30851574355492 0.0V-14.17200963247024H-15.386807666201172V-12.307772123769457H-22.13991292731115V-8.08470348161054H-15.862378459237087V-6.229977388770474H-22.13991292731115V-1.8642375087007832H-15.329739171036863V0.0Z M-9.834803999982697 0.0V-14.17200963247024H-4.755707930359134Q-3.1197444023155896 -14.17200963247024 -2.0259315783329868 -13.601324680827144Q-0.9321187543503839 -13.030639729184045 -0.3899680502894425 -12.027185355878267Q0.15218265377149898 -11.023730982572488 0.15218265377149898 -9.720667009654084Q0.15218265377149898 -8.293954630546342 -0.4945936247573437 -7.25245459379769Q-1.1413699032861864 -6.210954557049038 -2.4349224603438735 -5.725872348152405L0.6848219419717232 0.0H-1.7786347659543118L-4.651082355891233 -5.354927129584393Q-4.708150851055542 -5.354927129584393 -4.774730762080571 -5.354927129584393H-7.666201183738928V0.0ZM-7.666201183738928 -7.209653222424458H-4.983981911016373Q-3.424109709858574 -7.209653222424458 -2.7345320599564986 -7.870696624744378Q-2.044954410054423 -8.531740027064298 -2.044954410054423 -9.720667009654084Q-2.044954410054423 -10.919105408104588 -2.739287767886858 -11.618194473867382Q-3.4336211257192932 -12.317283539630175 -5.00300474273781 -12.317283539630175H-7.666201183738928Z M9.55630974358088 0.0 4.429656594653726 -14.17200963247024H6.7694648963904225L9.527775495998725 -6.287045883934784Q9.794095140098836 -5.4785755357737305 10.136506111084694 -4.351472756278614Q10.478917082070552 -3.2243699767834975 10.897419379942157 -1.7405891025114455Q11.315921677813762 -3.2529042243656523 11.648821232938902 -4.365739880069691Q11.981720788064042 -5.4785755357737305 12.238529016303435 -6.287045883934784L14.92074828902599 -14.17200963247024H17.270068006623404L12.20999476872128 0.0Z M24.22024980436747 -14.17200963247024V0.0H22.0516469881237V-14.17200963247024Z M35.973696611774265 0.19022831721436564Q34.12848193479492 0.19022831721436564 32.6875024318961 -0.6848219419717162Q31.246522928997276 -1.5598722011577981 30.419029749114785 -3.1863243133406245Q29.591536569232296 -4.812776425523451 29.591536569232296 -7.076493400374401Q29.591536569232296 -9.349721791086072 30.423785457045145 -10.980929611199258Q31.256034344857994 -12.612137431312442 32.697013847756814 -13.487187690498523Q34.137993350655634 -14.362237949684605 35.973696611774265 -14.362237949684605Q37.46698890190703 -14.362237949684605 38.70347296380041 -13.796308705971867Q39.939957025693786 -13.23037946225913 40.75793878971556 -12.160345177928324Q41.57592055373733 -11.090310893597517 41.81370595025529 -9.587507187604029H39.6355917181508Q39.36927207405069 -10.938128239826025 38.346794869023476 -11.660995845240613Q37.32431766399626 -12.383863450655204 35.9927194434957 -12.383863450655204Q34.77525821332376 -12.383863450655204 33.81460521139121 -11.770377127638874Q32.85395220945867 -11.156890804622545 32.297534381606646 -9.972719529963118Q31.741116553754626 -8.788548255303693 31.741116553754626 -7.076493400374401Q31.741116553754626 -5.354927129584393 32.297534381606646 -4.175511562855326Q32.85395220945867 -2.9960959961262588 33.81460521139121 -2.392121088970648Q34.77525821332376 -1.788146181815037 35.9927194434957 -1.788146181815037Q37.32431766399626 -1.788146181815037 38.346794869023476 -2.5157694951599856Q39.36927207405069 -3.243392808504934 39.6355917181508 -4.59401386072693H41.823217366116005Q41.604454801319484 -3.1863243133406245 40.81025157694951 -2.111534321079459Q40.01604835257953 -1.0367443288182927 38.774808582755796 -0.42325800580196354Q37.53356881293206 0.19022831721436564 35.973696611774265 0.19022831721436564Z M47.09938997237366 0.0V-14.17200963247024H56.02109804972741V-12.307772123769457H49.26799278861743V-8.08470348161054H55.54552725669149V-6.229977388770474H49.26799278861743V-1.8642375087007832H56.078166544891715V0.0Z M66.32880964630502 0.23778539651795705Q63.941444265264735 0.23778539651795705 62.52424330201771 -0.8798059671164411Q61.10704233877068 -1.9973973307508393 61.0119281801635 -3.937726166337369H63.19004241226799Q63.28515657087517 -2.777333431329738 64.18874107764341 -2.2209156034777187Q65.09232558441164 -1.6644977756256993 66.3192982304443 -1.6644977756256993Q67.6699192826663 -1.6644977756256993 68.55448095771311 -2.292251222433106Q69.43904263275991 -2.9200046692405124 69.43904263275991 -3.947237582198087Q69.43904263275991 -4.86984492068776 68.66386224011137 -5.321637174071879Q67.88868184746282 -5.773429427455997 66.74731194417663 -6.0777947349989825L65.09232558441164 -6.53434269631346Q63.351736481900204 -7.000402073488655 62.376816356176576 -7.913497996117611Q61.401896230452955 -8.826593918746566 61.401896230452955 -10.281840545436463Q61.401896230452955 -11.508813191469121 62.062939632772874 -12.426664822028435Q62.72398303509279 -13.344516452587749 63.86059723044863 -13.853377201136176Q64.99721142580447 -14.362237949684605 66.4239238049122 -14.362237949684605Q67.8791704316021 -14.362237949684605 68.98725037937578 -13.853377201136176Q70.09533032714947 -13.344516452587749 70.72783948188723 -12.45519906961059Q71.36034863662499 -11.56588168663343 71.38888288420715 -10.443534615068673H69.27734856312769Q69.17272298865979 -11.413699032861938 68.37851976428982 -11.94633832106216Q67.58431653991984 -12.478977609262385 66.37636672560862 -12.478977609262385Q65.09232558441164 -12.478977609262385 64.33141231555418 -11.894025533828211Q63.57049904669672 -11.309073458394037 63.57049904669672 -10.4054889516258Q63.57049904669672 -9.730178425514802 63.97948992870761 -9.316431835573557Q64.38848081071849 -8.902685245632313 64.98294430201338 -8.660144141183995Q65.57740779330828 -8.417603036735679 66.11955849736923 -8.274931798824905L67.49871379717337 -7.91349799611761Q68.17402432328437 -7.742292510624681 68.8921362207686 -7.452194326872774Q69.61024811825283 -7.162096143120866 70.2189787333388 -6.70079247387603Q70.82770934842478 -6.2394888046311925 71.20341027492314 -5.5594225705898355Q71.57911120142151 -4.8793563365484784 71.57911120142151 -3.918703334615932Q71.57911120142151 -2.7202649361654285 70.96086917047482 -1.7786347659543187Q70.34262713952813 -0.8370045957432088 69.16796728072943 -0.2996095996126259Q67.99330742193072 0.23778539651795705 66.32880964630502 0.23778539651795705Z" fill="#EAF3FF"/></g>
</svg>