<svg xmlns="http://www.w3.org/2000/svg" viewBox="0 0 512 512" width="512" height="512">
  <defs>
    <linearGradient id="disc2" gradientUnits="userSpaceOnUse" x1="256" y1="16" x2="256" y2="496">
      <stop offset="0%" stop-color="#205a93"/><stop offset="48%" stop-color="#0e2e58"/><stop offset="100%" stop-color="#07193a"/>
    </linearGradient>
    <radialGradient id="gloss" gradientUnits="userSpaceOnUse" cx="256" cy="150" r="215">
      <stop offset="0%" stop-color="#bfe9ff" stop-opacity="0.42"/><stop offset="55%" stop-color="#bfe9ff" stop-opacity="0.10"/><stop offset="100%" stop-color="#bfe9ff" stop-opacity="0"/>
    </radialGradient>
    <clipPath id="discclip"><circle cx="256" cy="256" r="240"/></clipPath>
    <radialGradient id="sphereF" gradientUnits="userSpaceOnUse" cx="218" cy="215" r="275">
      <stop offset="0%" stop-color="#1a4f82"/><stop offset="50%" stop-color="#0b2b54"/><stop offset="100%" stop-color="#05142f"/>
    </radialGradient>
    <radialGradient id="sglossF" gradientUnits="userSpaceOnUse" cx="215" cy="206" r="120">
      <stop offset="0%" stop-color="#ffffff" stop-opacity="0.30"/><stop offset="100%" stop-color="#ffffff" stop-opacity="0"/>
    </radialGradient>
    <clipPath id="sphereclipF"><circle cx="256" cy="256" r="172"/></clipPath></defs>
  <circle cx="256" cy="256" r="240" fill="url(#disc2)"/>
  <g clip-path="url(#discclip)"><ellipse cx="256" cy="150" rx="215" ry="150" fill="url(#gloss)"/></g>
  <circle cx="256" cy="256" r="240" fill="none" stroke="#04122b" stroke-width="3"/>
  <circle cx="256" cy="256" r="238" fill="none" stroke="#5AC8FF" stroke-width="1.5" opacity="0.30"/>
  <circle cx="256" cy="256" r="189.2" fill="none" stroke="#5AC8FF" stroke-width="17.20" opacity="0.10"/>
  <ellipse cx="256.0" cy="256.0" rx="209.8" ry="71.3" fill="none" stroke="#5AC8FF" stroke-width="3.06" opacity="0.3" transform="rotate(20 256 256)"/>
  <circle cx="403.5" cy="353.2" r="6.12" fill="#46E08A" opacity="0.95"/>
  <ellipse cx="256.0" cy="256.0" rx="209.8" ry="71.3" fill="none" stroke="#5AC8FF" stroke-width="3.06" opacity="0.3" transform="rotate(-32 256 256)"/>
  <circle cx="83.0" cy="322.0" r="6.12" fill="#BDEBFF" opacity="0.95"/>
  <circle cx="256" cy="256" r="172" fill="url(#sphereF)"/>
  <circle cx="256" cy="256" r="172" fill="none" stroke="#5AC8FF" stroke-width="4.78" opacity="0.85"/>
  <g clip-path="url(#sphereclipF)"><ellipse cx="256.0" cy="115.0" rx="98.4" ry="25.6" fill="none" stroke="#5AC8FF" stroke-width="3.06" opacity="0.3"/><ellipse cx="256.0" cy="156.2" rx="140.1" ry="36.4" fill="none" stroke="#5AC8FF" stroke-width="3.06" opacity="0.3"/><ellipse cx="256.0" cy="204.4" rx="164.1" ry="42.7" fill="none" stroke="#5AC8FF" stroke-width="3.06" opacity="0.6"/><ellipse cx="256.0" cy="256.0" rx="172.0" ry="44.7" fill="none" stroke="#5AC8FF" stroke-width="3.06" opacity="0.6"/><ellipse cx="256.0" cy="307.6" rx="164.1" ry="42.7" fill="none" stroke="#5AC8FF" stroke-width="3.06" opacity="0.6"/><ellipse cx="256.0" cy="355.8" rx="140.1" ry="36.4" fill="none" stroke="#5AC8FF" stroke-width="3.06" opacity="0.3"/><ellipse cx="256.0" cy="397.0" rx="98.4" ry="25.6" fill="none" stroke="#5AC8FF" stroke-width="3.06" opacity="0.3"/><ellipse cx="256.0" cy="256.0" rx="172.0" ry="172.0" fill="none" stroke="#5AC8FF" stroke-width="3.06" opacity="0.6"/><ellipse cx="256.0" cy="256.0" rx="134.2" ry="172.0" fill="none" stroke="#5AC8FF" stroke-width="3.06" opacity="0.3"/><ellipse cx="256.0" cy="256.0" rx="86.0" ry="172.0" fill="none" stroke="#5AC8FF" stroke-width="3.06" opacity="0.3"/><ellipse cx="256.0" cy="256.0" rx="37.8" ry="172.0" fill="none" stroke="#5AC8FF" stroke-width="3.06" opacity="0.3"/><path d="M 136 234 C 218 199, 302 302, 380 268" fill="none" stroke="#8FDCFF" stroke-width="3.82" opacity="0.7"/><path d="M 161 297 C 237 321, 290 237, 359 218" fill="none" stroke="#8FDCFF" stroke-width="3.06" opacity="0.55"/></g>
  <circle cx="256.0" cy="256.0" r="5.73" fill="#8FDCFF" opacity="0.95"/>
  <circle cx="176.9" cy="256.0" r="4.97" fill="#8FDCFF" opacity="0.95"/>
  <circle cx="335.1" cy="256.0" r="4.97" fill="#8FDCFF" opacity="0.95"/>
  <circle cx="256.0" cy="156.2" r="4.97" fill="#BDEBFF" opacity="0.95"/>
  <circle cx="256.0" cy="355.8" r="4.97" fill="#8FDCFF" opacity="0.95"/>
  <circle cx="175.1" cy="197.5" r="5.35" fill="#46E08A" opacity="0.95"/>
  <circle cx="336.9" cy="314.5" r="4.97" fill="#46E08A" opacity="0.95"/>
  <circle cx="336.9" cy="197.5" r="4.59" fill="#8FDCFF" opacity="0.95"/>
  <circle cx="175.1" cy="314.5" r="4.59" fill="#8FDCFF" opacity="0.95"/>
  <circle cx="220.3" cy="170.0" r="4.20" fill="#8FDCFF" opacity="0.95"/>
  <circle cx="291.7" cy="342.0" r="4.59" fill="#46E08A" opacity="0.95"/>
  <g clip-path="url(#sphereclipF)"><ellipse cx="215" cy="206" rx="124" ry="86" fill="url(#sglossF)" transform="rotate(-25 215 206)"/></g>
  <g transform="translate(256,313.53801987486196)">
    <path d="M-94.49364740522635 0.0V-115.07603974972396H-70.93781376518218V-83.64251748251749L-71.32397497239603 -57.460787633419216Q-67.5395951417004 -63.4849024659551 -63.29182186234818 -69.27732057416267Q-59.044048582995956 -75.06973868237026 -53.328862716231136 -82.02064041221936L-25.13909458962091 -115.07603974972396H3.6685314685314694L-39.34982701509017 -65.26124401913876L4.90424733161575 0.0H-22.97659182922341L-55.645829959514174 -49.73756348914244L-70.93781376518218 -32.90093485461907V0.0Z M19.269444239970554 0.0V-115.07603974972396H96.26998895841001V-95.53628266470372H42.825277880014724V-67.73267574530732H92.25391240338608V-48.50184762605815H42.825277880014724V-19.539757085020245H96.42445344129554V0.0Z" fill="none" stroke="#06203f" stroke-width="14" stroke-linejoin="round" opacity="0.92"/>
    <path d="M-94.49364740522635 0.0V-115.07603974972396H-70.93781376518218V-83.64251748251749L-71.32397497239603 -57.460787633419216Q-67.5395951417004 -63.4849024659551 -63.29182186234818 -69.27732057416267Q-59.044048582995956 -75.06973868237026 -53.328862716231136 -82.02064041221936L-25.13909458962091 -115.07603974972396H3.6685314685314694L-39.34982701509017 -65.26124401913876L4.90424733161575 0.0H-22.97659182922341L-55.645829959514174 -49.73756348914244L-70.93781376518218 -32.90093485461907V0.0Z M19.269444239970554 0.0V-115.07603974972396H96.26998895841001V-95.53628266470372H42.825277880014724V-67.73267574530732H92.25391240338608V-48.50184762605815H42.825277880014724V-19.539757085020245H96.42445344129554V0.0Z" fill="#FFFFFF"/>
  </g>
</svg>